<?xml version="1.0" standalone="no"?>
<svg width="100%" height="100%" id="svg" viewBox="0 0 1440 590" xmlns="http://www.w3.org/2000/svg" class="transition duration-300 ease-in-out delay-150"><defs><linearGradient id="gradient" x1="0%" y1="50%" x2="100%" y2="50%"><stop offset="5%" stop-color="#8ed1fc"></stop><stop offset="95%" stop-color="#abb8c3"></stop></linearGradient></defs><path d="M 0,600 L 0,112 C 62.843589743589746,91.0102564102564 125.68717948717949,70.0205128205128 203,59 C 280.3128205128205,47.97948717948719 372.0948717948718,46.928205128205136 455,66 C 537.9051282051282,85.07179487179486 611.9333333333333,124.26666666666665 700,123 C 788.0666666666667,121.73333333333335 890.1717948717949,80.00512820512822 971,73 C 1051.8282051282051,65.99487179487178 1111.3794871794871,93.71282051282051 1186,106 C 1260.6205128205129,118.28717948717949 1350.3102564102564,115.14358974358974 1440,112 L 1440,600 L 0,600 Z" stroke="none" stroke-width="0" fill="url(#gradient)" fill-opacity="0.4" class="transition-all duration-300 ease-in-out delay-150 path-0"></path><defs><linearGradient id="gradient" x1="0%" y1="50%" x2="100%" y2="50%"><stop offset="5%" stop-color="#8ed1fc"></stop><stop offset="95%" stop-color="#abb8c3"></stop></linearGradient></defs><path d="M 0,600 L 0,262 C 55.16153846153847,242.7846153846154 110.32307692307694,223.5692307692308 200,230 C 289.67692307692306,236.4307692307692 413.86923076923074,268.50769230769225 495,276 C 576.1307692307693,283.49230769230775 614.2,266.4 694,255 C 773.8,243.6 895.3307692307692,237.89230769230767 977,249 C 1058.6692307692308,260.10769230769233 1100.476923076923,288.03076923076924 1171,293 C 1241.523076923077,297.96923076923076 1340.7615384615385,279.9846153846154 1440,262 L 1440,600 L 0,600 Z" stroke="none" stroke-width="0" fill="url(#gradient)" fill-opacity="0.53" class="transition-all duration-300 ease-in-out delay-150 path-1"></path><defs><linearGradient id="gradient" x1="0%" y1="50%" x2="100%" y2="50%"><stop offset="5%" stop-color="#8ed1fc"></stop><stop offset="95%" stop-color="#abb8c3"></stop></linearGradient></defs><path d="M 0,600 L 0,412 C 55.37179487179486,399.5487179487179 110.74358974358972,387.0974358974359 204,378 C 297.2564102564103,368.9025641025641 428.3974358974359,363.1589743589744 510,380 C 591.6025641025641,396.8410256410256 623.6666666666667,436.2666666666667 705,443 C 786.3333333333333,449.7333333333333 916.9358974358975,423.77435897435896 994,419 C 1071.0641025641025,414.22564102564104 1094.5897435897434,430.63589743589745 1160,433 C 1225.4102564102566,435.36410256410255 1332.7051282051284,423.68205128205125 1440,412 L 1440,600 L 0,600 Z" stroke="none" stroke-width="0" fill="url(#gradient)" fill-opacity="1" class="transition-all duration-300 ease-in-out delay-150 path-2"></path></svg>